<svg id="Logo" xmlns="http://www.w3.org/2000/svg" viewBox="0 0 1335.92 584.13">
    <defs>
        <style>.cls-1{fill:#e12435;}.cls-2{fill:#fff;}.cls-3{fill:#232936;}</style>
    </defs>
    <title>9</title>
    <circle class="cls-1" cx="1202.29" cy="133.63" r="133.63"/>
    <path class="cls-2"
          d="M1479.48,289.81q-9.88-2.87-15.89-7.46l7-15.57a47.76,47.76,0,0,0,13.66,6.76,51.26,51.26,0,0,0,15.82,2.55q8.81,0,13-2.62t4.21-7a6.63,6.63,0,0,0-2.49-5.29,18.71,18.71,0,0,0-6.38-3.39q-3.9-1.27-10.53-2.81a145.65,145.65,0,0,1-16.72-4.84A27.18,27.18,0,0,1,1470,242.4q-4.66-5.37-4.66-14.3a24.83,24.83,0,0,1,4.21-14.09q4.22-6.33,12.7-10t20.74-3.7a68.63,68.63,0,0,1,16.71,2,49.48,49.48,0,0,1,14.3,5.87l-6.38,15.7q-12.39-7-24.76-7-8.69,0-12.83,2.8a8.59,8.59,0,0,0-4.14,7.41q0,4.59,4.78,6.82a75.21,75.21,0,0,0,14.61,4.41,143.42,143.42,0,0,1,16.72,4.85,27.82,27.82,0,0,1,11.17,7.65q4.65,5.24,4.65,14.17a24.38,24.38,0,0,1-4.27,14q-4.27,6.32-12.82,10t-20.81,3.7A73.22,73.22,0,0,1,1479.48,289.81Z"
          transform="translate(-339.21 -98.86)"/>
    <path class="cls-2" d="M1572.71,218.41V242h41.34v16.59h-41.34v32.54H1552V201.82h67.51v16.59Z" transform="translate(-339.21 -98.86)"/>
    <path class="cls-3"
          d="M684.3,618.62a24.92,24.92,0,0,1,24-15.33,26.2,26.2,0,0,1,14.47,4,25.36,25.36,0,0,1,9.46,11.35A42.36,42.36,0,0,1,735.5,636v15.17h20.76v17.42H681V636A41.86,41.86,0,0,1,684.3,618.62Zm33.62,6.4q-3.39-4.1-9.63-4.09T698.55,625q-3.39,4.1-3.39,11.94v14.2H721.3V637Q721.3,629.12,717.92,625Z"
          transform="translate(-339.21 -98.86)"/>
    <path class="cls-3"
          d="M756.26,543l-21,14.52v16h21v17.42H681V558.33A41.86,41.86,0,0,1,684.3,541a25.72,25.72,0,0,1,9.47-11.35,26,26,0,0,1,14.52-4,24.5,24.5,0,0,1,23.77,15.49l24.2-16.89Zm-57.71,4.41q-3.39,4.08-3.39,11.94v14.2h26.25V559.3q0-7.86-3.44-11.94t-9.68-4.09Q701.95,543.27,698.55,547.36Z"
          transform="translate(-339.21 -98.86)"/>
    <path class="cls-3"
          d="M752.5,496.53a37.54,37.54,0,0,1-13.93,14.74,40.09,40.09,0,0,1-39.91,0,37.54,37.54,0,0,1-13.93-14.74,46.56,46.56,0,0,1,0-42.22,38.41,38.41,0,0,1,67.77,0,46.65,46.65,0,0,1,0,42.22Zm-12.86-33.18a22,22,0,0,0-8.55-8.45,27,27,0,0,0-25,0,22,22,0,0,0-8.55,8.45,25.16,25.16,0,0,0,0,24.09,22,22,0,0,0,8.55,8.45,27,27,0,0,0,25,0,22,22,0,0,0,8.55-8.45,25.16,25.16,0,0,0,0-24.09Z"
          transform="translate(-339.21 -98.86)"/>
    <path class="cls-3"
          d="M424.27,661.67a159,159,0,0,1-62.35-59.14q-22.73-37.81-22.71-85.5t22.71-85.53a159,159,0,0,1,62.35-59.14Q463.95,351,513.46,351q41.7,0,75.42,14.68a151.34,151.34,0,0,1,56.64,42.17l-47.71,44q-32.55-37.59-80.7-37.59-29.81,0-53.18,13.07a92.79,92.79,0,0,0-36.46,36.44Q414.41,487.22,414.4,517t13.07,53.18a93,93,0,0,0,36.46,36.45q23.4,13.05,53.18,13.06,48.15,0,80.7-38l47.71,44a148.82,148.82,0,0,1-56.87,42.66Q554.7,683,513,683,463.95,683,424.27,661.67Z"
          transform="translate(-339.21 -98.86)"/>
    <path class="cls-3"
          d="M907.67,574.37c21.29-9.21,37.42-22.45,48.93-39.72s17.27-37.71,17.27-61.6-5.76-44.61-17-61.88c-11.23-17.56-27.35-30.8-48.36-40.3s-45.76-14.39-74.26-14.39H695.53v60.73H830.24c22.45,0,39.43,4.61,51,14.39,11.51,9.5,17.56,23.32,17.56,41.45,0,17.56-6,31.38-17.56,41.16s-28.5,14.68-51,14.68H769.8v59.3H838l61.88,89.23h79.73Z"
          transform="translate(-339.21 -98.86)"/>
    <path class="cls-3" d="M1324.57,677.5l-.48-192.57-94.44,158.64h-33.48l-94-154.53V677.5h-69.68v-321h61.45L1214,556l118.31-199.46h61l.93,321Z" transform="translate(-339.21 -98.86)"/>
</svg>