<svg clip-rule="evenodd" fill-rule="evenodd" height="115" image-rendering="optimizeQuality" shape-rendering="geometricPrecision" text-rendering="geometricPrecision" viewBox="0 0 313.642 120.002" width="300" xmlns="http://www.w3.org/2000/svg"><path d="m56.1075 8.05749c30.3349 0 54.9354 24.6007 54.9354 54.9354 0 30.3349-24.6005 54.9354-54.9354 54.9354-30.3347 0-54.9354-24.6005-54.9354-54.9354 0-30.3347 24.6007-54.9354 54.9354-54.9354z" fill="#8900bc"/><path d="m196.761 11.8245c0 1.51412.298835 2.94875.8965 4.30356.597834 1.35481 1.39472 2.55031 2.391 3.58633.996109 1.03602 2.17165 1.83308 3.52647 2.39083 1.35481.557923 2.78944.836801 4.30356.836801 1.51429 0 2.94892-.278878 4.30373-.836801 1.35481-.557753 2.53035-1.35481 3.52647-2.39083.996276-1.03602 1.79317-2.23152 2.391-3.58633.597668-1.35481.8965-2.78944.8965-4.30356 0-1.59394-.298832-3.04837-.8965-4.36343-.597831-1.31507-1.39472-2.49045-2.391-3.52663-.996113-1.03602-2.17166-1.83291-3.52647-2.39083-1.35481-.557923-2.78944-.836798-4.30373-.836798-1.51412 0-2.94875.278875-4.30356.836798s-2.53036 1.35481-3.52647 2.39083c-.996276 1.03619-1.79317 2.21156-2.391 3.52663-.597664 1.31506-.8965 2.76949-.8965 4.36343z" fill="#8900bc" fill-rule="nonzero"/><path d="m265.907 85.3445c1.47438 1.59395 3.40707 2.94876 5.7979 4.0646 2.39083 1.11568 5.06071 1.95248 8.00946 2.5104 2.94875.557923 5.89751.836801 8.84643.836801 3.18772 0 6.23625-.438356 9.1451-1.33486 2.90901-.876712 5.45915-2.15187 7.65093-3.80551 2.19161-1.65381 3.92508-3.68594 5.20007-6.07694 1.27515-2.39083 1.91273-5.10062 1.91273-8.12903 0-3.16793-.717231-5.7979-2.1517-7.90985-1.43463-2.092-3.2278-3.84542-5.3795-5.24014-2.15187-1.41451-4.50295-2.55014-7.05326-3.44681-2.55031-.876712-4.90123-1.69356-7.0531-2.43074-2.15187-.737188-3.94503-1.49433-5.3795-2.25148-1.43447-.776933-2.15187-1.71334-2.15187-2.82919 0-1.2552.498221-2.17165 1.49433-2.76949.996279-.57771 2.13191-.876543 3.40707-.876543 1.43447 0 2.84914.238967 4.24386.717231 1.39472.478101 2.72958 1.01607 4.00473 1.6139 1.27515.597668 2.47065 1.13563 3.58633 1.61373 1.11568.478264 2.15187.717231 3.10823.717231 2.23136 0 4.08439-.737188 5.55877-2.21156 1.47438-1.47438 2.21156-3.36715 2.21156-5.67833 0-2.39083-.777099-4.44309-2.33113-6.1566-1.55403-1.71334-3.42685-3.08811-5.61863-4.1243-2.19161-1.03602-4.52274-1.79317-6.9934-2.27127-2.47049-.478267-4.6621-.717234-6.57483-.717234-3.74581 0-7.09301.557757-10.0418 1.65365-2.94876 1.11568-5.45932 2.59022-7.53136 4.42313-2.07204 1.85303-3.66599 3.94503-4.78183 6.31591-1.11568 2.35109-1.6736 4.74208-1.6736 7.17283 0 2.29122.318789 4.26365.956368 5.91746.637575 1.65365 1.57399 3.08811 2.80923 4.32352 1.23541 1.21529 2.76949 2.29122 4.60256 3.24759 1.83291.956368 3.94487 1.89278 6.33586 2.76949 2.62997.956368 4.86149 1.75325 6.69457 2.37088 1.83291.637575 3.32724 1.1955 4.48283 1.71351 1.15559.518009 1.99239 1.05598 2.5104 1.6139.518009.557923.777099 1.27516.777099 2.1517 0 .876712-.398445 1.67377-1.1955 2.37104-.796887.69728-2.1517 1.05598-4.06443 1.05598-1.99239 0-3.76577-.278878-5.3198-.836798-1.55403-.557923-3.02841-1.17554-4.42313-1.85287-1.39472-.677486-2.74953-1.29511-4.0646-1.85303-1.3149-.557923-2.68967-.836801-4.1243-.836801-2.07204 0-3.86521.836801-5.3795 2.5104-2.98135 3.29532-3.08844 8.68013-.0597018 11.9545zm-34.0104-2.13191c0 2.66988.856755 4.94131 2.57026 6.77422 1.71351 1.85303 3.96482 2.76949 6.75426 2.76949 2.78928 0 5.04075-.916457 6.75426-2.76949 1.71351-1.83291 2.57026-4.10434 2.57026-6.77422v-36.8396h5.14036c3.02841 0 5.41941-.677486 7.17267-2.0323 1.75342-1.35481 2.62996-3.54642 2.62996-6.575 0-3.02841-.876543-5.22002-2.62996-6.575-1.75325-1.35481-4.14425-2.03213-7.17267-2.03213h-5.14036v-5.14053c0-2.39083.358534-4.00473 1.07577-4.84153.717397-.836798 1.79317-1.2552 3.2278-1.2552 5.89751 0 8.84626-2.8691 8.84626-8.60729 0-1.75325-.378488-3.18772-1.13563-4.30357-.757142-1.11568-1.73346-1.99239-2.9288-2.62996-1.1955-.637579-2.53035-1.07593-4.00473-1.31507-1.47454-.238964-2.92897-.358531-4.36343-.358531-2.8691 0-5.49906.518009-7.89006 1.55403-2.39083 1.03602-4.42313 2.4507-6.09673 4.24386-1.6736 1.79317-2.98866 3.90512-3.94503 6.33586-.956198 2.43074-1.43447 5.08066-1.43447 7.94976v8.36816h-2.15187c-3.02841 0-5.41924.677323-7.17266 2.03213-1.75325 1.35498-2.62996 3.54659-2.62996 6.575 0 3.02857.876709 5.22019 2.62996 6.575 1.75342 1.35481 4.14425 2.0323 7.17266 2.0323h2.15187v36.8396zm-33.3423.079822c0 2.64975.856755 4.88128 2.5701 6.71435 1.71351 1.83308 3.96499 2.74953 6.75426 2.74953 2.78944 0 5.04092-.916457 6.75443-2.74953 1.71334-1.83308 2.5701-4.0646 2.5701-6.71435v-44.67c0-2.64992-.856755-4.88144-2.5701-6.71435-1.71351-1.83308-3.96499-2.74953-6.75443-2.74953-2.78928 0-5.04075.916457-6.75426 2.74953-1.71334 1.83291-2.5701 4.06443-2.5701 6.71435zm-7.05858-44.5305c0-2.68983-.856755-4.9611-2.57026-6.81413-1.71334-1.85287-3.96482-2.78928-6.75426-2.78928-2.31117 0-4.184.757145-5.61846 2.29122-1.43463 1.53408-2.47065 3.16793-3.10823 4.88144-2.07204-2.55031-4.36343-4.38339-6.87383-5.49906-2.5104-1.11585-5.55876-1.6736-9.14526-1.6736-4.06443 0-7.84999.836801-11.3567 2.53036-3.50668 1.6736-6.55504 3.96482-9.14526 6.87383-2.59006 2.90885-4.62236 6.33586-6.09673 10.2807-1.47438 3.94503-2.21156 8.16894-2.21156 12.6917 0 4.04464.557923 7.94976 1.6736 11.7155 1.11584 3.74564 2.8094 7.07305 5.08066 9.9819 2.27143 2.90901 5.08066 5.22019 8.42786 6.9337 3.34736 1.7333 7.29223 2.59006 11.8349 2.59006 3.10823 0 6.19651-.478101 9.26483-1.43447 3.06832-.956365 5.63842-2.8691 7.71063-5.7382h.239134c0 5.47911-1.1358 9.72297-3.40706 12.7314-2.27143 2.98866-6.31591 4.483-12.1338 4.483-2.70979 0-5.02097-.278878-6.9337-.836798-1.91273-.557923-3.58633-1.1955-5.0208-1.91273-1.43463-.717234-2.74953-1.35481-3.94503-1.91273-1.1955-.557923-2.47066-.836801-3.82546-.836801-.956365 0-1.89278.219176-2.80923.657532-.91662.438356-1.73346 1.03602-2.4507 1.79317-.717234.757145-1.31506 1.63369-1.79317 2.62997-.478267.996276-.717234 2.01234-.717234 3.04837 0 2.55031.996113 4.70217 2.9885 6.45543 1.99255 1.75325 4.4233 3.18789 7.29223 4.30357 2.8691 1.11584 5.91746 1.91273 9.14526 2.391 3.22763.478098 6.03703.717231 8.42786.717231 4.5427 0 8.86622-.597664 12.9706-1.77321 4.10451-1.1955 7.71079-3.06832 10.8189-5.63859 3.10823-2.57026 5.55893-5.91746 7.35209-10.0218 1.79317-4.10434 2.68967-9.12531 2.68967-15.0627v-48.037zm-21.9364 33.2733c-2.19178 2.80923-5.35971 4.22391-9.5038 4.22391-4.14425 0-7.31218-1.41467-9.50379-4.22391-2.19178-2.80923-3.2875-6.29595-3.2875-10.4801 0-1.97243.278878-3.82546.836801-5.57872.557753-1.75325 1.37476-3.2875 2.4507-4.6024 1.07577-1.31506 2.41079-2.37104 4.00473-3.12819 1.59394-.777099 3.42685-1.15559 5.49906-1.15559 2.07204 0 3.90512.378488 5.49906 1.15559 1.59378.757145 2.9288 1.81312 4.00473 3.12819 1.07577 1.3149 1.89278 2.84914 2.45053 4.6024 1.66761 5.24048.978981 11.6626-2.45053 16.0588z" fill="#f5f5f5"/><path d="m39.2923 68.3093c-1.07094.693121-2.26212 1.06313-3.40174.574718-.978652-.419399-1.98507-.890845-2.91633-1.34616-2.08169-1.01806-4.13112-2.66389-6.57849-2.32797-1.42931.196227-2.42326 1.01108-2.86244 2.03163-.768951 1.78618.106927 4.2575 2.42808 6.03803 2.86478 2.1976 5.10195 2.51173 5.10195 2.98268s-8.99593 2.30685-6.56336 7.87909c2.43257 5.57223 13.5883-.775603 14.1378-.540127.549442.235473-7.77066 6.5148-5.29818 10.7141s7.8884 1.64832 11.7737-3.88533c3.88533-5.53366 4.86648-7.84916 5.25893-7.4567.392458.392458-1.2557 7.45703.863407 11.3028 2.22088 4.03101 7.52305 4.03084 9.74393 0 2.11894-3.84575.47095-10.9103.863407-11.3028.392458-.392458 1.3736 1.92304 5.25893 7.4567 3.88533 5.53365 9.30125 8.08463 11.7737 3.88533 2.47248-4.1993-5.84762-10.4786-5.29818-10.7141.549442-.235476 11.7052 6.11236 14.1378.540127 2.43257-5.57223-6.56336-7.40814-6.56336-7.87909s2.23717-.785081 5.10195-2.98268c2.32115-1.78053 3.19704-4.25185 2.42808-6.03803-.439187-1.02056-1.43314-1.83541-2.86245-2.03163-2.44737-.335917-4.4968 1.30991-6.57849 2.32797-.931254.455318-1.93768.926763-2.91633 1.34616-1.19866.513687-2.45419.0774948-3.56688-.685139 4.11282-4.26548 6.64784-10.0913 6.64784-16.5148 0-13.0723-10.4939-23.6737-23.4339-23.6737s-23.4339 10.6013-23.4339 23.6737c0 6.47904 2.57875 12.3501 6.75443 16.6252z" fill="#f5f5f5"/><path d="m0 0h313.642v120.002h-313.642z" fill="none"/></svg>