<?xml version="1.0" standalone="no"?>
<!DOCTYPE svg PUBLIC "-//W3C//DTD SVG 20010904//EN"
 "http://www.w3.org/TR/2001/REC-SVG-20010904/DTD/svg10.dtd">
<svg version="1.0" xmlns="http://www.w3.org/2000/svg"
 width="202.000000pt" height="202.000000pt" viewBox="0 0 202.000000 202.000000"
 preserveAspectRatio="xMidYMid meet">
<metadata>
Created by potrace 1.14, written by Peter Selinger 2001-2017
</metadata>
<g transform="translate(0.000000,202.000000) scale(0.100000,-0.100000)"
fill="#000000" stroke="none">
<path d="M950 1993 c-25 -12 -57 -22 -71 -23 -14 0 -43 -9 -66 -19 -22 -11
-49 -18 -60 -15 -12 4 -36 -6 -63 -24 -34 -23 -48 -27 -61 -19 -25 15 -46 3
-68 -42 -24 -46 -67 -72 -101 -59 -26 10 -45 -9 -55 -54 -4 -15 -11 -30 -16
-33 -5 -4 -9 -15 -9 -26 0 -21 -7 -23 -29 -10 -9 6 -22 6 -34 -1 -16 -8 -18
-18 -14 -51 3 -23 8 -50 12 -59 5 -13 2 -18 -8 -18 -22 0 -29 -29 -17 -70 6
-21 6 -38 0 -44 -5 -5 2 -30 19 -65 22 -44 26 -60 18 -73 -9 -13 -7 -21 6 -36
9 -10 19 -32 22 -48 5 -25 2 -31 -24 -46 -29 -16 -30 -20 -27 -70 4 -61 32
-174 50 -203 7 -11 18 -40 26 -65 18 -59 54 -98 84 -93 19 4 25 -1 31 -24 14
-48 22 -156 28 -378 2 -77 9 -151 15 -165 30 -68 115 -129 187 -135 17 -2 73
-7 125 -11 117 -10 318 -11 385 -2 49 6 179 38 220 53 42 16 175 110 181 127
6 19 -27 123 -50 161 -8 12 -17 36 -21 52 -11 47 -13 175 -3 181 5 3 7 12 4
20 -3 7 -1 16 3 18 11 7 22 59 27 124 2 35 10 60 24 74 11 12 20 35 20 52 0
16 14 58 31 93 61 126 78 259 38 294 -11 10 -18 23 -14 29 11 18 15 70 4 70
-5 0 4 27 21 60 33 66 37 90 15 90 -18 0 -19 13 -5 78 11 50 -1 109 -19 97
-14 -8 -21 9 -28 62 -6 53 -18 74 -37 67 -9 -3 -21 15 -36 51 -22 54 -24 57
-54 52 -25 -4 -45 5 -101 42 -75 50 -108 57 -130 27 -11 -15 -21 -17 -52 -11
-46 9 -116 15 -201 19 -35 2 -67 7 -70 12 -4 5 -27 -1 -52 -13z"/>
</g>
</svg>
