<svg viewBox="0 0 186 48" fill="none" xmlns="http://www.w3.org/2000/svg"
     class="Header_logo__FLQUX Header_logo_main__j3Whs" data-hideable="true">
  <path
    d="M54.544 0h4.524v9.048l2.262-2.262h11.31V0h4.524v18.097H72.64V11.31H59.068v6.787h-4.524V0ZM135.978 0h4.524v9.048l2.262-2.262h11.311V0h4.524v18.097h-4.524V11.31h-13.573v6.787h-4.524V0ZM104.309 18.097h-4.524V11.31l-6.786 6.787h-6.787l9.049-9.049h4.524V4.524h4.524v13.573Z"
    fill="CurrentColor"></path>
  <path
    d="M99.785 4.524H86.212v13.573h-4.524V4.524L86.212 0h18.097l-4.524 4.524ZM126.93 18.097h4.524V0h-4.524v6.786h-13.573V0h-4.524v6.786l4.524 4.524h11.311l2.262-2.262v9.049ZM163.123 0h4.524v13.572l9.048-9.048h4.524V0h4.525v18.097h-4.525V6.787l-11.31 11.31h-6.786V0ZM59.068 24.883h-4.524v18.096h6.786l11.31-11.31v11.31h4.524V24.883H72.64v4.524h-4.524l-9.048 9.048V24.883ZM81.688 29.407h4.524v13.572h-4.524V29.407ZM86.212 29.407l-4.524-4.524h18.097l4.524 4.524v4.524h-4.524v-4.524H86.212ZM108.833 29.407h4.524v9.048h13.573v-9.048h-13.573l-4.524-4.524h18.097l4.524 4.524v9.048l-4.524 4.524h-11.311l-2.262-2.262v6.787h-4.524V29.407ZM135.978 24.883h4.524v6.786h13.573v-6.786h4.524v13.572l-4.524 4.524v-9.048l-2.263 2.262h-11.31l-4.524-4.524v-6.786ZM154.075 42.98H138.24l-2.262 2.261v2.263h13.572l4.525-4.525Z"
    fill="CurrentColor"></path>
  <path
    d="M45.495 29.407V13.572h-9.048l-6.786 6.787v4.524l4.524 4.524h11.31ZM.254 13.572v15.835h9.048l6.786-6.786v-4.524l-4.524-4.525H.254ZM13.826 42.98V33.93l9.049-9.048h2.262v4.524l4.524 4.524v9.048H13.826ZM31.923 0v9.048l-9.048 9.049h-2.262v-4.525l-4.525-4.524V0h15.835Z"
    fill="#10E211"></path>
</svg>
